{
  "asset": {
    "generator": "Khronos glTF Blender I/O v3.6.27",
    "version": "2.0"
  },
  "scene": 0,
  "scenes": [
    {
      "name": "Scene",
      "nodes": [
        0
      ]
    }
  ],
  "nodes": [
    {
      "mesh": 0,
      "name": "concrete_road_barrier"
    }
  ],
  "materials": [
    {
      "doubleSided": true,
      "name": "concrete_road_barrier",
      "normalTexture": {
        "index": 0
      },
      "pbrMetallicRoughness": {
        "baseColorTexture": {
          "index": 1
        },
        "metallicFactor": 0,
        "metallicRoughnessTexture": {
          "index": 2
        }
      }
    }
  ],
  "meshes": [
    {
      "name": "RetopoFlow.006",
      "primitives": [
        {
          "attributes": {
            "POSITION": 0,
            "NORMAL": 1,
            "TEXCOORD_0": 2
          },
          "indices": 3,
          "material": 0
        }
      ]
    }
  ],
  "textures": [
    {
      "sampler": 0,
      "source": 0
    },
    {
      "sampler": 0,
      "source": 1
    },
    {
      "sampler": 0,
      "source": 2
    }
  ],
  "images": [
    {
      "mimeType": "image/jpeg",
      "name": "concrete_road_barrier_nor_gl",
      "uri": "textures/concrete_road_barrier_nor_gl_1k.jpg"
    },
    {
      "mimeType": "image/jpeg",
      "name": "concrete_road_barrier_diff",
      "uri": "textures/concrete_road_barrier_diff_1k.jpg"
    },
    {
      "mimeType": "image/jpeg",
      "name": "concrete_road_barrier_rough",
      "uri": "textures/concrete_road_barrier_arm_1k.jpg"
    }
  ],
  "accessors": [
    {
      "bufferView": 0,
      "componentType": 5126,
      "count": 31514,
      "max": [
        0.7707335948944092,
        0.8226187229156494,
        0.3439931571483612
      ],
      "min": [
        -0.774623453617096,
        -0.008429879322648048,
        -0.2947474718093872
      ],
      "type": "VEC3"
    },
    {
      "bufferView": 1,
      "componentType": 5126,
      "count": 31514,
      "type": "VEC3"
    },
    {
      "bufferView": 2,
      "componentType": 5126,
      "count": 31514,
      "type": "VEC2"
    },
    {
      "bufferView": 3,
      "componentType": 5123,
      "count": 182784,
      "type": "SCALAR"
    }
  ],
  "bufferViews": [
    {
      "buffer": 0,
      "byteLength": 378168,
      "byteOffset": 0,
      "target": 34962
    },
    {
      "buffer": 0,
      "byteLength": 378168,
      "byteOffset": 378168,
      "target": 34962
    },
    {
      "buffer": 0,
      "byteLength": 252112,
      "byteOffset": 756336,
      "target": 34962
    },
    {
      "buffer": 0,
      "byteLength": 365568,
      "byteOffset": 1008448,
      "target": 34963
    }
  ],
  "samplers": [
    {
      "magFilter": 9729,
      "minFilter": 9987
    }
  ],
  "buffers": [
    {
      "byteLength": 1374016,
      "uri": "concrete_road_barrier.bin"
    }
  ]
}